<svg id="visual" viewBox="0 0 960 540" width="960" height="540" xmlns="http://www.w3.org/2000/svg" xmlns:xlink="http://www.w3.org/1999/xlink" version="1.1"><path d="M502 540L530 510C558 480 614 420 664.2 360C714.3 300 758.7 240 757 180C755.3 120 707.7 60 683.8 30L660 0L960 0L960 30C960 60 960 120 960 180C960 240 960 300 960 360C960 420 960 480 960 510L960 540Z" fill="#e08c4b"></path><path d="M686 540L707 510C728 480 770 420 773.3 360C776.7 300 741.3 240 742 180C742.7 120 779.3 60 797.7 30L816 0L960 0L960 30C960 60 960 120 960 180C960 240 960 300 960 360C960 420 960 480 960 510L960 540Z" fill="#d7772e"></path><path d="M781 540L782.7 510C784.3 480 787.7 420 789.5 360C791.3 300 791.7 240 774.3 180C757 120 722 60 704.5 30L687 0L960 0L960 30C960 60 960 120 960 180C960 240 960 300 960 360C960 420 960 480 960 510L960 540Z" fill="#ce620a"></path><path d="M813 540L812.8 510C812.7 480 812.3 420 815.5 360C818.7 300 825.3 240 821.7 180C818 120 804 60 797 30L790 0L960 0L960 30C960 60 960 120 960 180C960 240 960 300 960 360C960 420 960 480 960 510L960 540Z" fill="#b2540c"></path><path d="M814 540L822.5 510C831 480 848 420 867 360C886 300 907 240 902.8 180C898.7 120 869.3 60 854.7 30L840 0L960 0L960 30C960 60 960 120 960 180C960 240 960 300 960 360C960 420 960 480 960 510L960 540Z" fill="#97470d"></path></svg>