<svg id="visual" viewBox="0 0 900 600" width="900" height="600" xmlns="http://www.w3.org/2000/svg" xmlns:xlink="http://www.w3.org/1999/xlink" version="1.1"><path d="M268 0L290.8 33.3C313.7 66.7 359.3 133.3 346.3 200C333.3 266.7 261.7 333.3 259.3 400C257 466.7 324 533.3 357.5 566.7L391 600L0 600L0 566.7C0 533.3 0 466.7 0 400C0 333.3 0 266.7 0 200C0 133.3 0 66.7 0 33.3L0 0Z" fill="#ffffff"></path><path d="M325 0L333.3 33.3C341.7 66.7 358.3 133.3 336.3 200C314.3 266.7 253.7 333.3 245.2 400C236.7 466.7 280.3 533.3 302.2 566.7L324 600L0 600L0 566.7C0 533.3 0 466.7 0 400C0 333.3 0 266.7 0 200C0 133.3 0 66.7 0 33.3L0 0Z" fill="#ffeacf"></path><path d="M109 0L110.2 33.3C111.3 66.7 113.7 133.3 119.3 200C125 266.7 134 333.3 169 400C204 466.7 265 533.3 295.5 566.7L326 600L0 600L0 566.7C0 533.3 0 466.7 0 400C0 333.3 0 266.7 0 200C0 133.3 0 66.7 0 33.3L0 0Z" fill="#ffd69f"></path><path d="M223 0L230.5 33.3C238 66.7 253 133.3 245.8 200C238.7 266.7 209.3 333.3 206.3 400C203.3 466.7 226.7 533.3 238.3 566.7L250 600L0 600L0 566.7C0 533.3 0 466.7 0 400C0 333.3 0 266.7 0 200C0 133.3 0 66.7 0 33.3L0 0Z" fill="#fec36f"></path><path d="M104 0L103 33.3C102 66.7 100 133.3 95.5 200C91 266.7 84 333.3 76.2 400C68.3 466.7 59.7 533.3 55.3 566.7L51 600L0 600L0 566.7C0 533.3 0 466.7 0 400C0 333.3 0 266.7 0 200C0 133.3 0 66.7 0 33.3L0 0Z" fill="#fcaf3c"></path></svg>