<svg id="visual" viewBox="0 0 900 600" width="900" height="600" xmlns="http://www.w3.org/2000/svg" xmlns:xlink="http://www.w3.org/1999/xlink" version="1.1"><path d="M191 0L207.5 33.3C224 66.7 257 133.3 247.8 200C238.7 266.7 187.3 333.3 185.7 400C184 466.7 232 533.3 256 566.7L280 600L0 600L0 566.7C0 533.3 0 466.7 0 400C0 333.3 0 266.7 0 200C0 133.3 0 66.7 0 33.3L0 0Z" fill="#ffffff"></path><path d="M233 0L238.8 33.3C244.7 66.7 256.3 133.3 240.5 200C224.7 266.7 181.3 333.3 175.2 400C169 466.7 200 533.3 215.5 566.7L231 600L0 600L0 566.7C0 533.3 0 466.7 0 400C0 333.3 0 266.7 0 200C0 133.3 0 66.7 0 33.3L0 0Z" fill="#ffeacf"></path><path d="M78 0L78.8 33.3C79.7 66.7 81.3 133.3 85.3 200C89.3 266.7 95.7 333.3 120.7 400C145.7 466.7 189.3 533.3 211.2 566.7L233 600L0 600L0 566.7C0 533.3 0 466.7 0 400C0 333.3 0 266.7 0 200C0 133.3 0 66.7 0 33.3L0 0Z" fill="#ffd69f"></path><path d="M160 0L165.3 33.3C170.7 66.7 181.3 133.3 176.2 200C171 266.7 150 333.3 147.8 400C145.7 466.7 162.3 533.3 170.7 566.7L179 600L0 600L0 566.7C0 533.3 0 466.7 0 400C0 333.3 0 266.7 0 200C0 133.3 0 66.7 0 33.3L0 0Z" fill="#fec36f"></path><path d="M75 0L74.2 33.3C73.3 66.7 71.7 133.3 68.3 200C65 266.7 60 333.3 54.5 400C49 466.7 43 533.3 40 566.7L37 600L0 600L0 566.7C0 533.3 0 466.7 0 400C0 333.3 0 266.7 0 200C0 133.3 0 66.7 0 33.3L0 0Z" fill="#fcaf3c"></path></svg>