<svg id="visual" viewBox="0 0 900 600" width="900" height="600" xmlns="http://www.w3.org/2000/svg" xmlns:xlink="http://www.w3.org/1999/xlink" version="1.1"><g fill="none" stroke="#F7770F" stroke-width="4"><path d="M0 -54.7L12.3 -16.9L52.1 -16.9L19.9 6.5L32.2 44.3L0 20.9L-32.2 44.3L-19.9 6.5L-52.1 -16.9L-12.3 -16.9Z" transform="translate(684 486)"></path><path d="M0 -27.4L6.1 -8.5L26 -8.5L9.9 3.2L16.1 22.1L0 10.5L-16.1 22.1L-9.9 3.2L-26 -8.5L-6.1 -8.5Z" transform="translate(309 8)"></path><path d="M0 -28.3L6.4 -8.7L26.9 -8.7L10.3 3.3L16.6 22.9L0 10.8L-16.6 22.9L-10.3 3.3L-26.9 -8.7L-6.4 -8.7Z" transform="translate(473 259)"></path><path d="M0 -49.1L11 -15.2L46.7 -15.2L17.8 5.8L28.8 39.7L0 18.7L-28.8 39.7L-17.8 5.8L-46.7 -15.2L-11 -15.2Z" transform="translate(721 61)"></path><path d="M0 -30.2L6.8 -9.3L28.7 -9.3L11 3.6L17.8 24.4L0 11.5L-17.8 24.4L-11 3.6L-28.7 -9.3L-6.8 -9.3Z" transform="translate(760 355)"></path><path d="M0 -51.9L11.7 -16L49.4 -16L18.9 6.1L30.5 42L0 19.8L-30.5 42L-18.9 6.1L-49.4 -16L-11.7 -16Z" transform="translate(601 152)"></path></g></svg>