<svg id="visual" viewBox="0 0 900 600" width="900" height="600" xmlns="http://www.w3.org/2000/svg" xmlns:xlink="http://www.w3.org/1999/xlink" version="1.1"><path d="M612 600L631.2 575C650.3 550 688.7 500 691.2 450C693.7 400 660.3 350 657.5 300C654.7 250 682.3 200 682.8 150C683.3 100 656.7 50 643.3 25L630 0L900 0L900 25C900 50 900 100 900 150C900 200 900 250 900 300C900 350 900 400 900 450C900 500 900 550 900 575L900 600Z" fill="#3e5372"></path><path d="M688 600L693.3 575C698.7 550 709.3 500 699.7 450C690 400 660 350 658.5 300C657 250 684 200 690 150C696 100 681 50 673.5 25L666 0L900 0L900 25C900 50 900 100 900 150C900 200 900 250 900 300C900 350 900 400 900 450C900 500 900 550 900 575L900 600Z" fill="#465d7f"></path><path d="M758 600L754.3 575C750.7 550 743.3 500 745.7 450C748 400 760 350 758.5 300C757 250 742 200 726 150C710 100 693 50 684.5 25L676 0L900 0L900 25C900 50 900 100 900 150C900 200 900 250 900 300C900 350 900 400 900 450C900 500 900 550 900 575L900 600Z" fill="#4d678d"></path><path d="M708 600L712.5 575C717 550 726 500 739.7 450C753.3 400 771.7 350 768.2 300C764.7 250 739.3 200 733.3 150C727.3 100 740.7 50 747.3 25L754 0L900 0L900 25C900 50 900 100 900 150C900 200 900 250 900 300C900 350 900 400 900 450C900 500 900 550 900 575L900 600Z" fill="#55719b"></path><path d="M814 600L812 575C810 550 806 500 799 450C792 400 782 350 783.2 300C784.3 250 796.7 200 803.7 150C810.7 100 812.3 50 813.2 25L814 0L900 0L900 25C900 50 900 100 900 150C900 200 900 250 900 300C900 350 900 400 900 450C900 500 900 550 900 575L900 600Z" fill="#657ea4"></path><path d="M862 600L851 575C840 550 818 500 809.8 450C801.7 400 807.3 350 808.7 300C810 250 807 200 803.8 150C800.7 100 797.3 50 795.7 25L794 0L900 0L900 25C900 50 900 100 900 150C900 200 900 250 900 300C900 350 900 400 900 450C900 500 900 550 900 575L900 600Z" fill="#748bae"></path><path d="M862 600L865.2 575C868.3 550 874.7 500 870.5 450C866.3 400 851.7 350 846 300C840.3 250 843.7 200 845.3 150C847 100 847 50 847 25L847 0L900 0L900 25C900 50 900 100 900 150C900 200 900 250 900 300C900 350 900 400 900 450C900 500 900 550 900 575L900 600Z" fill="#8498b7"></path></svg>