<svg id="visual" viewBox="0 0 900 450" width="900" height="450" xmlns="http://www.w3.org/2000/svg" xmlns:xlink="http://www.w3.org/1999/xlink" version="1.1"><path d="M612 450L631.2 431.3C650.3 412.7 688.7 375.3 691.2 337.8C693.7 300.3 660.3 262.7 657.5 225.2C654.7 187.7 682.3 150.3 682.8 112.8C683.3 75.3 656.7 37.7 643.3 18.8L630 0L900 0L900 18.8C900 37.7 900 75.3 900 112.8C900 150.3 900 187.7 900 225.2C900 262.7 900 300.3 900 337.8C900 375.3 900 412.7 900 431.3L900 450Z" fill="#3e5372"></path><path d="M688 450L693.3 431.3C698.7 412.7 709.3 375.3 699.7 337.8C690 300.3 660 262.7 658.5 225.2C657 187.7 684 150.3 690 112.8C696 75.3 681 37.7 673.5 18.8L666 0L900 0L900 18.8C900 37.7 900 75.3 900 112.8C900 150.3 900 187.7 900 225.2C900 262.7 900 300.3 900 337.8C900 375.3 900 412.7 900 431.3L900 450Z" fill="#465d7f"></path><path d="M758 450L754.3 431.3C750.7 412.7 743.3 375.3 745.7 337.8C748 300.3 760 262.7 758.5 225.2C757 187.7 742 150.3 726 112.8C710 75.3 693 37.7 684.5 18.8L676 0L900 0L900 18.8C900 37.7 900 75.3 900 112.8C900 150.3 900 187.7 900 225.2C900 262.7 900 300.3 900 337.8C900 375.3 900 412.7 900 431.3L900 450Z" fill="#4d678d"></path><path d="M708 450L712.5 431.3C717 412.7 726 375.3 739.7 337.8C753.3 300.3 771.7 262.7 768.2 225.2C764.7 187.7 739.3 150.3 733.3 112.8C727.3 75.3 740.7 37.7 747.3 18.8L754 0L900 0L900 18.8C900 37.7 900 75.3 900 112.8C900 150.3 900 187.7 900 225.2C900 262.7 900 300.3 900 337.8C900 375.3 900 412.7 900 431.3L900 450Z" fill="#55719b"></path><path d="M814 450L812 431.3C810 412.7 806 375.3 799 337.8C792 300.3 782 262.7 783.2 225.2C784.3 187.7 796.7 150.3 803.7 112.8C810.7 75.3 812.3 37.7 813.2 18.8L814 0L900 0L900 18.8C900 37.7 900 75.3 900 112.8C900 150.3 900 187.7 900 225.2C900 262.7 900 300.3 900 337.8C900 375.3 900 412.7 900 431.3L900 450Z" fill="#657ea4"></path><path d="M862 450L851 431.3C840 412.7 818 375.3 809.8 337.8C801.7 300.3 807.3 262.7 808.7 225.2C810 187.7 807 150.3 803.8 112.8C800.7 75.3 797.3 37.7 795.7 18.8L794 0L900 0L900 18.8C900 37.7 900 75.3 900 112.8C900 150.3 900 187.7 900 225.2C900 262.7 900 300.3 900 337.8C900 375.3 900 412.7 900 431.3L900 450Z" fill="#748bae"></path><path d="M862 450L865.2 431.3C868.3 412.7 874.7 375.3 870.5 337.8C866.3 300.3 851.7 262.7 846 225.2C840.3 187.7 843.7 150.3 845.3 112.8C847 75.3 847 37.7 847 18.8L847 0L900 0L900 18.8C900 37.7 900 75.3 900 112.8C900 150.3 900 187.7 900 225.2C900 262.7 900 300.3 900 337.8C900 375.3 900 412.7 900 431.3L900 450Z" fill="#8498b7"></path></svg>