<svg id="visual" viewBox="0 0 1000 200" width="1000" height="200" xmlns="http://www.w3.org/2000/svg" xmlns:xlink="http://www.w3.org/1999/xlink" version="1.1"><path d="M500 200L524.3 191.7C548.7 183.3 597.3 166.7 621.3 150C645.3 133.3 644.7 116.7 644.5 100C644.3 83.3 644.7 66.7 654.8 50C665 33.3 685 16.7 695 8.3L705 0L1000 0L1000 8.3C1000 16.7 1000 33.3 1000 50C1000 66.7 1000 83.3 1000 100C1000 116.7 1000 133.3 1000 150C1000 166.7 1000 183.3 1000 191.7L1000 200Z" fill="#3e5372"></path><path d="M629 200L642.8 191.7C656.7 183.3 684.3 166.7 676.5 150C668.7 133.3 625.3 116.7 624.5 100C623.7 83.3 665.3 66.7 663.7 50C662 33.3 617 16.7 594.5 8.3L572 0L1000 0L1000 8.3C1000 16.7 1000 33.3 1000 50C1000 66.7 1000 83.3 1000 100C1000 116.7 1000 133.3 1000 150C1000 166.7 1000 183.3 1000 191.7L1000 200Z" fill="#465d7f"></path><path d="M582 200L611.3 191.7C640.7 183.3 699.3 166.7 719.3 150C739.3 133.3 720.7 116.7 708.5 100C696.3 83.3 690.7 66.7 698.7 50C706.7 33.3 728.3 16.7 739.2 8.3L750 0L1000 0L1000 8.3C1000 16.7 1000 33.3 1000 50C1000 66.7 1000 83.3 1000 100C1000 116.7 1000 133.3 1000 150C1000 166.7 1000 183.3 1000 191.7L1000 200Z" fill="#4d678d"></path><path d="M756 200L757.2 191.7C758.3 183.3 760.7 166.7 753.5 150C746.3 133.3 729.7 116.7 722.3 100C715 83.3 717 66.7 724.5 50C732 33.3 745 16.7 751.5 8.3L758 0L1000 0L1000 8.3C1000 16.7 1000 33.3 1000 50C1000 66.7 1000 83.3 1000 100C1000 116.7 1000 133.3 1000 150C1000 166.7 1000 183.3 1000 191.7L1000 200Z" fill="#55719b"></path><path d="M728 200L750.8 191.7C773.7 183.3 819.3 166.7 843 150C866.7 133.3 868.3 116.7 857.3 100C846.3 83.3 822.7 66.7 812 50C801.3 33.3 803.7 16.7 804.8 8.3L806 0L1000 0L1000 8.3C1000 16.7 1000 33.3 1000 50C1000 66.7 1000 83.3 1000 100C1000 116.7 1000 133.3 1000 150C1000 166.7 1000 183.3 1000 191.7L1000 200Z" fill="#657ea4"></path><path d="M900 200L892.8 191.7C885.7 183.3 871.3 166.7 874.8 150C878.3 133.3 899.7 116.7 907.5 100C915.3 83.3 909.7 66.7 902.5 50C895.3 33.3 886.7 16.7 882.3 8.3L878 0L1000 0L1000 8.3C1000 16.7 1000 33.3 1000 50C1000 66.7 1000 83.3 1000 100C1000 116.7 1000 133.3 1000 150C1000 166.7 1000 183.3 1000 191.7L1000 200Z" fill="#748bae"></path><path d="M869 200L880.8 191.7C892.7 183.3 916.3 166.7 928.7 150C941 133.3 942 116.7 946.5 100C951 83.3 959 66.7 952.2 50C945.3 33.3 923.7 16.7 912.8 8.3L902 0L1000 0L1000 8.3C1000 16.7 1000 33.3 1000 50C1000 66.7 1000 83.3 1000 100C1000 116.7 1000 133.3 1000 150C1000 166.7 1000 183.3 1000 191.7L1000 200Z" fill="#8498b7"></path></svg>