<svg id="visual" viewBox="0 0 1000 200" width="1000" height="200" xmlns="http://www.w3.org/2000/svg" xmlns:xlink="http://www.w3.org/1999/xlink" version="1.1"><path d="M667 200L683.2 191.7C699.3 183.3 731.7 166.7 747.7 150C763.7 133.3 763.3 116.7 763.2 100C763 83.3 763 66.7 769.7 50C776.3 33.3 789.7 16.7 796.3 8.3L803 0L1000 0L1000 8.3C1000 16.7 1000 33.3 1000 50C1000 66.7 1000 83.3 1000 100C1000 116.7 1000 133.3 1000 150C1000 166.7 1000 183.3 1000 191.7L1000 200Z" fill="#3e5372"></path><path d="M753 200L762.2 191.7C771.3 183.3 789.7 166.7 784.5 150C779.3 133.3 750.7 116.7 750.2 100C749.7 83.3 777.3 66.7 776.2 50C775 33.3 745 16.7 730 8.3L715 0L1000 0L1000 8.3C1000 16.7 1000 33.3 1000 50C1000 66.7 1000 83.3 1000 100C1000 116.7 1000 133.3 1000 150C1000 166.7 1000 183.3 1000 191.7L1000 200Z" fill="#465d7f"></path><path d="M721 200L740.7 191.7C760.3 183.3 799.7 166.7 813.2 150C826.7 133.3 814.3 116.7 806.2 100C798 83.3 794 66.7 799.2 50C804.3 33.3 818.7 16.7 825.8 8.3L833 0L1000 0L1000 8.3C1000 16.7 1000 33.3 1000 50C1000 66.7 1000 83.3 1000 100C1000 116.7 1000 133.3 1000 150C1000 166.7 1000 183.3 1000 191.7L1000 200Z" fill="#4d678d"></path><path d="M838 200L838.7 191.7C839.3 183.3 840.7 166.7 835.8 150C831 133.3 820 116.7 815.2 100C810.3 83.3 811.7 66.7 816.7 50C821.7 33.3 830.3 16.7 834.7 8.3L839 0L1000 0L1000 8.3C1000 16.7 1000 33.3 1000 50C1000 66.7 1000 83.3 1000 100C1000 116.7 1000 133.3 1000 150C1000 166.7 1000 183.3 1000 191.7L1000 200Z" fill="#55719b"></path><path d="M819 200L834.3 191.7C849.7 183.3 880.3 166.7 896.2 150C912 133.3 913 116.7 905.5 100C898 83.3 882 66.7 874.8 50C867.7 33.3 869.3 16.7 870.2 8.3L871 0L1000 0L1000 8.3C1000 16.7 1000 33.3 1000 50C1000 66.7 1000 83.3 1000 100C1000 116.7 1000 133.3 1000 150C1000 166.7 1000 183.3 1000 191.7L1000 200Z" fill="#657ea4"></path><path d="M934 200L929.2 191.7C924.3 183.3 914.7 166.7 917 150C919.3 133.3 933.7 116.7 938.8 100C944 83.3 940 66.7 935.2 50C930.3 33.3 924.7 16.7 921.8 8.3L919 0L1000 0L1000 8.3C1000 16.7 1000 33.3 1000 50C1000 66.7 1000 83.3 1000 100C1000 116.7 1000 133.3 1000 150C1000 166.7 1000 183.3 1000 191.7L1000 200Z" fill="#748bae"></path><path d="M913 200L920.8 191.7C928.7 183.3 944.3 166.7 952.5 150C960.7 133.3 961.3 116.7 964.3 100C967.3 83.3 972.7 66.7 968.2 50C963.7 33.3 949.3 16.7 942.2 8.3L935 0L1000 0L1000 8.3C1000 16.7 1000 33.3 1000 50C1000 66.7 1000 83.3 1000 100C1000 116.7 1000 133.3 1000 150C1000 166.7 1000 183.3 1000 191.7L1000 200Z" fill="#8498b7"></path></svg>