<svg id="visual" viewBox="0 0 900 600" width="900" height="600" xmlns="http://www.w3.org/2000/svg" xmlns:xlink="http://www.w3.org/1999/xlink" version="1.1"><path d="M304 0L294.7 33.3C285.3 66.7 266.7 133.3 268.2 200C269.7 266.7 291.3 333.3 318.8 400C346.3 466.7 379.7 533.3 396.3 566.7L413 600L0 600L0 566.7C0 533.3 0 466.7 0 400C0 333.3 0 266.7 0 200C0 133.3 0 66.7 0 33.3L0 0Z" fill="#4772b4"></path><path d="M356 0L330.7 33.3C305.3 66.7 254.7 133.3 225.5 200C196.3 266.7 188.7 333.3 195.8 400C203 466.7 225 533.3 236 566.7L247 600L0 600L0 566.7C0 533.3 0 466.7 0 400C0 333.3 0 266.7 0 200C0 133.3 0 66.7 0 33.3L0 0Z" fill="#3a69a3"></path><path d="M206 0L191.8 33.3C177.7 66.7 149.3 133.3 142 200C134.7 266.7 148.3 333.3 188.7 400C229 466.7 296 533.3 329.5 566.7L363 600L0 600L0 566.7C0 533.3 0 466.7 0 400C0 333.3 0 266.7 0 200C0 133.3 0 66.7 0 33.3L0 0Z" fill="#2e5f93"></path><path d="M74 0L97.3 33.3C120.7 66.7 167.3 133.3 189.7 200C212 266.7 210 333.3 201.5 400C193 466.7 178 533.3 170.5 566.7L163 600L0 600L0 566.7C0 533.3 0 466.7 0 400C0 333.3 0 266.7 0 200C0 133.3 0 66.7 0 33.3L0 0Z" fill="#245682"></path><path d="M103 0L111.2 33.3C119.3 66.7 135.7 133.3 129.2 200C122.7 266.7 93.3 333.3 74.3 400C55.3 466.7 46.7 533.3 42.3 566.7L38 600L0 600L0 566.7C0 533.3 0 466.7 0 400C0 333.3 0 266.7 0 200C0 133.3 0 66.7 0 33.3L0 0Z" fill="#1c4c72"></path></svg>