<svg id="visual" viewBox="0 0 900 600" width="900" height="600" xmlns="http://www.w3.org/2000/svg" xmlns:xlink="http://www.w3.org/1999/xlink" version="1.1"><path d="M0 116L16.7 108.5C33.3 101 66.7 86 100 75C133.3 64 166.7 57 200 57.3C233.3 57.7 266.7 65.3 300 78.5C333.3 91.7 366.7 110.3 400 106.7C433.3 103 466.7 77 500 64C533.3 51 566.7 51 600 58.8C633.3 66.7 666.7 82.3 700 82.8C733.3 83.3 766.7 68.7 800 66C833.3 63.3 866.7 72.7 883.3 77.3L900 82L900 0L883.3 0C866.7 0 833.3 0 800 0C766.7 0 733.3 0 700 0C666.7 0 633.3 0 600 0C566.7 0 533.3 0 500 0C466.7 0 433.3 0 400 0C366.7 0 333.3 0 300 0C266.7 0 233.3 0 200 0C166.7 0 133.3 0 100 0C66.7 0 33.3 0 16.7 0L0 0Z" fill="#ff4200" stroke-linecap="round" stroke-linejoin="miter"></path></svg>