<svg id="visual" viewBox="0 0 900 600" width="900" height="600" xmlns="http://www.w3.org/2000/svg" xmlns:xlink="http://www.w3.org/1999/xlink" version="1.1"><path d="M0 194L16.7 181.3C33.3 168.7 66.7 143.3 100 125C133.3 106.7 166.7 95.3 200 96C233.3 96.7 266.7 109.3 300 131.3C333.3 153.3 366.7 184.7 400 178.5C433.3 172.3 466.7 128.7 500 107C533.3 85.3 566.7 85.7 600 98.8C633.3 112 666.7 138 700 138.7C733.3 139.3 766.7 114.7 800 110.3C833.3 106 866.7 122 883.3 130L900 138L900 0L883.3 0C866.7 0 833.3 0 800 0C766.7 0 733.3 0 700 0C666.7 0 633.3 0 600 0C566.7 0 533.3 0 500 0C466.7 0 433.3 0 400 0C366.7 0 333.3 0 300 0C266.7 0 233.3 0 200 0C166.7 0 133.3 0 100 0C66.7 0 33.3 0 16.7 0L0 0Z" fill="#f32c0c" stroke-linecap="round" stroke-linejoin="miter"></path></svg>